# xmcd
#
# Track frame offsets:
#	183
#	12610
#	25598
#	35515
#	48185
#	58195
#	71645
#	83070
#	93560
#	105168
#	116135
#	127730
#	139008
#	152285
#	162863
#	172243
#	183340
#	194315
#	202495
#	214100
#	224370
#	236340
#	247645
#
# Disc length: 3434 seconds
#
# Revision: 1
# Processed by: cddbd v1.4PL0 Copyright (c) Steve Scherf et al.
# Submitted via: audiograbber 1.81.02
#
DISCID=3a0d6817
DTITLE=Willie Nelson - The Complete Liberty Recordings CD2
DYEAR=1900
DGENRE=Country
TTITLE0=Country Willie
TTITLE1=Crazy
TTITLE2=(Blue Must Be) The Colour Of The Blues
TTITLE3=Wake Me When It's Over
TTITLE4=Right Or Wrong
TTITLE5=The Last Letter
TTITLE6=Night Life
TTITLE7=The Part Where I Cry (Duet With Shirley Collie)
TTITLE8=Undo The Right
TTITLE9=Home Motel
TTITLE10=Seasons Of My Heart
TTITLE11=Opportunity To Cry
TTITLE12=Three Days
TTITLE13=Where My House Lives
TTITLE14=Columbus Stockade Blues (Duet With Shirley Collie)
TTITLE15=Half A Man
TTITLE16=One Step Beyond
TTITLE17=Take My Word
TTITLE18=Feed It A Memory
TTITLE19=There'll Be No Teardrops Tonight
TTITLE20=Tomorrow Night
TTITLE21=I Hope So
TTITLE22=Touch Me
EXTD=
EXTT0=
EXTT1=
EXTT2=
EXTT3=
EXTT4=
EXTT5=
EXTT6=
EXTT7=
EXTT8=
EXTT9=
EXTT10=
EXTT11=
EXTT12=
EXTT13=
EXTT14=
EXTT15=
EXTT16=
EXTT17=
EXTT18=
EXTT19=
EXTT20=
EXTT21=
EXTT22=
PLAYORDER=
